<?xml version="1.0" encoding="utf-8"?>
<!-- Generator: Adobe Illustrator 23.0.4, SVG Export Plug-In . SVG Version: 6.00 Build 0)  -->
<svg version="1.1" id="Layer_1" xmlns="http://www.w3.org/2000/svg" xmlns:xlink="http://www.w3.org/1999/xlink" x="0px" y="0px"
	 viewBox="0 0 9 16" style="enable-background:new 0 0 9 16;" xml:space="preserve">
<style type="text/css">
	.st0{fill:#1F2532;}
</style>
<title>Accordion/ Righ-Left</title>
<desc>Created with Sketch.</desc>
<path id="Path" class="st0" d="M8.8,0.2c0.3,0.3,0.3,0.7,0,1L2.1,7.7C2,7.8,1.9,7.9,1.9,8l0,0c0,0.1,0.1,0.3,0.1,0.3l6.7,6.5
	C8.9,15,9,15.1,9,15.3c0,0.2-0.1,0.3-0.2,0.5c-0.3,0.3-0.7,0.3-1,0L0.2,8.5C0.1,8.3,0,8.2,0,8c0-0.2,0.1-0.3,0.2-0.5c0,0,0,0,0,0
	l7.6-7.3C8.1-0.1,8.5-0.1,8.8,0.2z"/>
</svg>
